# xmcd
#
# Track frame offsets:
#	187
#	23422
#	40782
#	63587
#	82900
#	103280
#	121962
#	139062
#	155740
#	168970
#	187990
#	205945
#
# Disc length: 3232 seconds
#
# Revision: 1
# Processed by: cddbd v1.5PL3 Copyright (c) Steve Scherf et al.
# Submitted via: CDex 1.50Beta5
#
DISCID=9a0c9e0c
DTITLE=Street beats - MANIFESTO
DYEAR=1900
DGENRE=Rock
TTITLE0=マニフェスト-目の前のすべてを確かめたい-
TTITLE1=運命をあやつれ
TTITLE2=賢い愚か者
TTITLE3=サンクチュアリ
TTITLE4=天使の憂鬱
TTITLE5=満足できない
TTITLE6=HELLO NEW DAYS-新しい朝に-
TTITLE7=ルードボーイブルー
TTITLE8=BORN TO BE HAPPY
TTITLE9=BEATNIK ROCKER
TTITLE10=歓喜の詩-湧き出てくるのは絶望じゃない-
TTITLE11=ワンダフルライフ
EXTD=
EXTT0=
EXTT1=
EXTT2=
EXTT3=
EXTT4=
EXTT5=
EXTT6=
EXTT7=
EXTT8=
EXTT9=
EXTT10=
EXTT11=
PLAYORDER=
